<svg width="73" height="72" viewBox="0 0 73 72" fill="none" xmlns="http://www.w3.org/2000/svg">
<g filter="url(#filter0_d_20_106)">
<mask id="path-1-inside-1_20_106" fill="white">
<path fill-rule="evenodd" clip-rule="evenodd" d="M45.6326 63.306C57.0522 59.2145 65.2707 47.7918 65.2707 34.3405C65.2707 17.453 52.3171 3.76294 36.338 3.76294C20.3589 3.76294 7.40527 17.453 7.40527 34.3405C7.40527 47.792 15.6239 59.2147 27.0437 63.3062V53.5012C27.0437 51.8443 28.3869 50.5012 30.0437 50.5012H31.7302L22.9043 16.379C22.6968 15.577 23.1739 14.7404 23.9697 14.5105C24.7656 14.2805 25.579 14.7443 25.7864 15.5463L32.5998 41.8878L31.5498 31.6582C31.4652 30.8341 32.0638 30.0895 32.8868 29.9952C33.7099 29.9008 34.4456 30.4924 34.5302 31.3165L36.4995 50.5012H36.8791L43.7501 22.3804C43.9467 21.5756 44.754 21.1001 45.5532 21.3182C46.3524 21.5363 46.8409 22.3655 46.6442 23.1702L39.9662 50.5012H42.6326C44.2895 50.5012 45.6326 51.8443 45.6326 53.5012V63.306Z"/>
</mask>
<path fill-rule="evenodd" clip-rule="evenodd" d="M45.6326 63.306C57.0522 59.2145 65.2707 47.7918 65.2707 34.3405C65.2707 17.453 52.3171 3.76294 36.338 3.76294C20.3589 3.76294 7.40527 17.453 7.40527 34.3405C7.40527 47.792 15.6239 59.2147 27.0437 63.3062V53.5012C27.0437 51.8443 28.3869 50.5012 30.0437 50.5012H31.7302L22.9043 16.379C22.6968 15.577 23.1739 14.7404 23.9697 14.5105C24.7656 14.2805 25.579 14.7443 25.7864 15.5463L32.5998 41.8878L31.5498 31.6582C31.4652 30.8341 32.0638 30.0895 32.8868 29.9952C33.7099 29.9008 34.4456 30.4924 34.5302 31.3165L36.4995 50.5012H36.8791L43.7501 22.3804C43.9467 21.5756 44.754 21.1001 45.5532 21.3182C46.3524 21.5363 46.8409 22.3655 46.6442 23.1702L39.9662 50.5012H42.6326C44.2895 50.5012 45.6326 51.8443 45.6326 53.5012V63.306Z" fill="#A77D62"/>
<path d="M45.6326 63.306H44.6326V64.7266L45.9699 64.2474L45.6326 63.306ZM27.0437 63.3062L26.7064 64.2476L28.0437 64.7267V63.3062H27.0437ZM31.7302 50.5012V51.5012H33.0218L32.6983 50.2508L31.7302 50.5012ZM22.9043 16.379L23.8724 16.1286V16.1286L22.9043 16.379ZM23.9697 14.5105L24.2473 15.4712L23.9697 14.5105ZM25.7864 15.5463L26.7546 15.2959V15.2959L25.7864 15.5463ZM32.5998 41.8878L31.6317 42.1383L33.5946 41.7857L32.5998 41.8878ZM31.5498 31.6582L30.555 31.7603V31.7603L31.5498 31.6582ZM32.8868 29.9952L33.0007 30.9887H33.0007L32.8868 29.9952ZM34.5302 31.3165L33.5355 31.4186V31.4186L34.5302 31.3165ZM36.4995 50.5012L35.5047 50.6033L35.5969 51.5012H36.4995V50.5012ZM36.8791 50.5012V51.5012H37.6642L37.8505 50.7385L36.8791 50.5012ZM43.7501 22.3804L44.7215 22.6178V22.6178L43.7501 22.3804ZM45.5532 21.3182L45.8165 20.3535H45.8165L45.5532 21.3182ZM46.6442 23.1702L45.6728 22.9329V22.9329L46.6442 23.1702ZM39.9662 50.5012L38.9948 50.2638L38.6925 51.5012H39.9662V50.5012ZM64.2707 34.3405C64.2707 47.3853 56.3028 58.4207 45.2953 62.3646L45.9699 64.2474C57.8016 60.0082 66.2707 48.1983 66.2707 34.3405H64.2707ZM36.338 4.76294C51.7134 4.76294 64.2707 17.9524 64.2707 34.3405H66.2707C66.2707 16.9535 52.9207 2.76294 36.338 2.76294V4.76294ZM8.40527 34.3405C8.40527 17.9524 20.9625 4.76294 36.338 4.76294V2.76294C19.7552 2.76294 6.40527 16.9535 6.40527 34.3405H8.40527ZM27.381 62.3648C16.3733 58.421 8.40527 47.3854 8.40527 34.3405H6.40527C6.40527 48.1985 14.8745 60.0085 26.7064 64.2476L27.381 62.3648ZM28.0437 63.3062V53.5012H26.0437V63.3062H28.0437ZM28.0437 53.5012C28.0437 52.3966 28.9391 51.5012 30.0437 51.5012V49.5012C27.8346 49.5012 26.0437 51.2921 26.0437 53.5012H28.0437ZM30.0437 51.5012H31.7302V49.5012H30.0437V51.5012ZM32.6983 50.2508L23.8724 16.1286L21.9362 16.6294L30.7621 50.7516L32.6983 50.2508ZM23.8724 16.1286C23.8005 15.8506 23.9715 15.5509 24.2473 15.4712L23.6922 13.5498C22.3762 13.9299 21.5931 15.3033 21.9362 16.6294L23.8724 16.1286ZM24.2473 15.4712C24.502 15.3976 24.7519 15.5401 24.8183 15.7968L26.7546 15.2959C26.406 13.9485 25.0292 13.1635 23.6922 13.5498L24.2473 15.4712ZM24.8183 15.7968L31.6317 42.1383L33.568 41.6374L26.7546 15.2959L24.8183 15.7968ZM33.5946 41.7857L32.5445 31.5561L30.555 31.7603L31.605 41.9899L33.5946 41.7857ZM32.5445 31.5561C32.5159 31.2768 32.7218 31.0207 33.0007 30.9887L32.7729 29.0017C31.4058 29.1584 30.4145 30.3914 30.555 31.7603L32.5445 31.5561ZM33.0007 30.9887C33.2705 30.9577 33.5077 31.1485 33.5355 31.4186L35.525 31.2144C35.3836 29.8363 34.1493 28.8439 32.7729 29.0017L33.0007 30.9887ZM33.5355 31.4186L35.5047 50.6033L37.4943 50.3991L35.525 31.2144L33.5355 31.4186ZM36.4995 51.5012H36.8791V49.5012H36.4995V51.5012ZM37.8505 50.7385L44.7215 22.6178L42.7786 22.143L35.9077 50.2638L37.8505 50.7385ZM44.7215 22.6178C44.7845 22.3597 45.0336 22.213 45.2899 22.2829L45.8165 20.3535C44.4743 19.9872 43.1088 20.7916 42.7786 22.143L44.7215 22.6178ZM45.2899 22.2829C45.5664 22.3584 45.7408 22.6545 45.6728 22.9329L47.6156 23.4076C47.9409 22.0765 47.1384 20.7142 45.8165 20.3535L45.2899 22.2829ZM45.6728 22.9329L38.9948 50.2638L40.9377 50.7385L47.6156 23.4076L45.6728 22.9329ZM39.9662 51.5012H42.6326V49.5012H39.9662V51.5012ZM42.6326 51.5012C43.7372 51.5012 44.6326 52.3966 44.6326 53.5012H46.6326C46.6326 51.2921 44.8417 49.5012 42.6326 49.5012V51.5012ZM44.6326 53.5012V63.306H46.6326V53.5012H44.6326Z" fill="#A77D62" mask="url(#path-1-inside-1_20_106)"/>
<path d="M15.5972 59.0237C11.0656 55.3396 2.37896 44.6773 5.48823 26.6041C8.5975 8.53091 26.0138 1 35.2924 1C52.5474 1 64.0105 10.9984 67.0138 26.6041C71.1968 48.3399 56.5562 59.0237 56.5562 59.0237" stroke="#A77D62" stroke-linecap="round"/>
</g>
<defs>
<filter id="filter0_d_20_106" x="0.330566" y="0.5" width="71.9351" height="70.8062" filterUnits="userSpaceOnUse" color-interpolation-filters="sRGB">
<feFlood flood-opacity="0" result="BackgroundImageFix"/>
<feColorMatrix in="SourceAlpha" type="matrix" values="0 0 0 0 0 0 0 0 0 0 0 0 0 0 0 0 0 0 127 0" result="hardAlpha"/>
<feOffset dy="4"/>
<feGaussianBlur stdDeviation="2"/>
<feComposite in2="hardAlpha" operator="out"/>
<feColorMatrix type="matrix" values="0 0 0 0 0 0 0 0 0 0 0 0 0 0 0 0 0 0 0.25 0"/>
<feBlend mode="normal" in2="BackgroundImageFix" result="effect1_dropShadow_20_106"/>
<feBlend mode="normal" in="SourceGraphic" in2="effect1_dropShadow_20_106" result="shape"/>
</filter>
</defs>
</svg>
