<svg width="58" height="58" viewBox="0 0 58 58" fill="none" xmlns="http://www.w3.org/2000/svg">
<path d="M28.8 0C12.894 0 0 12.894 0 28.8C0 44.706 12.894 57.6 28.8 57.6C44.706 57.6 57.6 44.706 57.6 28.8C57.6 12.894 44.706 0 28.8 0ZM39.876 32.493C39.876 32.493 42.423 35.007 43.05 36.174C43.068 36.198 43.077 36.222 43.083 36.234C43.338 36.663 43.398 36.996 43.272 37.245C43.062 37.659 42.342 37.863 42.096 37.881H37.596C37.284 37.881 36.63 37.8 35.838 37.254C35.229 36.828 34.629 36.129 34.044 35.448C33.171 34.434 32.415 33.558 31.653 33.558C31.5562 33.5578 31.46 33.573 31.368 33.603C30.792 33.789 30.054 34.611 30.054 36.801C30.054 37.485 29.514 37.878 29.133 37.878H27.072C26.37 37.878 22.713 37.632 19.473 34.215C15.507 30.03 11.937 21.636 11.907 21.558C11.682 21.015 12.147 20.724 12.654 20.724H17.199C17.805 20.724 18.003 21.093 18.141 21.42C18.303 21.801 18.897 23.316 19.872 25.02C21.453 27.798 22.422 28.926 23.199 28.926C23.3447 28.9243 23.4878 28.8872 23.616 28.818C24.63 28.254 24.441 24.639 24.396 23.889C24.396 23.748 24.393 22.272 23.874 21.564C23.502 21.051 22.869 20.856 22.485 20.784C22.6404 20.5695 22.8452 20.3956 23.082 20.277C23.778 19.929 25.032 19.878 26.277 19.878H26.97C28.32 19.896 28.668 19.983 29.157 20.106C30.147 20.343 30.168 20.982 30.081 23.169C30.054 23.79 30.027 24.492 30.027 25.32C30.027 25.5 30.018 25.692 30.018 25.896C29.988 27.009 29.952 28.272 30.738 28.791C30.8405 28.8553 30.959 28.8896 31.08 28.89C31.353 28.89 32.175 28.89 34.401 25.071C35.0875 23.8418 35.6841 22.5644 36.186 21.249C36.231 21.171 36.363 20.931 36.519 20.838C36.6341 20.7793 36.7618 20.7495 36.891 20.751H42.234C42.816 20.751 43.215 20.838 43.29 21.063C43.422 21.42 43.266 22.509 40.827 25.812L39.738 27.249C37.527 30.147 37.527 30.294 39.876 32.493Z" fill="black"/>
</svg>
