<svg width="58" height="58" viewBox="0 0 58 58" fill="none" xmlns="http://www.w3.org/2000/svg">
<path d="M28.8 0C12.96 0 0 12.9831 0 28.9735C0 43.4313 10.5408 55.4313 24.3072 57.6V37.3591H16.992V28.9735H24.3072V22.5831C24.3072 15.3253 28.5984 11.3349 35.1936 11.3349C38.3328 11.3349 41.6159 11.8843 41.6159 11.8843V19.0265H37.9871C34.416 19.0265 33.2928 21.253 33.2928 23.5374V28.9735H41.2991L40.0031 37.3591H33.2928V57.6C40.0792 56.5238 46.2591 53.0472 50.7164 47.7976C55.1738 42.5483 57.6155 35.8716 57.5999 28.9735C57.5999 12.9831 44.6399 0 28.8 0Z" fill="black"/>
</svg>
